<?xml version='1.0' encoding='utf-8'?>
<svg width="100.09mm" height="100.09mm" viewBox="-1.0009 -1.0009 2.0018 2.0018" version="1.1" xmlns="http://www.w3.org/2000/svg">
  <g transform="scale(1,-1)" stroke-linecap="round">
    <g fill="none" stroke="rgb(0,0,0)" stroke-width="0.0018">
      <path d="M 0.933013,0.25 A 0.5,0.5 -89.99999999999996 0,1 0.25,0.933013 A 0.5,0.5 0.0 0,1 -0.25,0.933013 A 0.5,0.5 0.0 0,1 -0.933013,0.25 A 0.5,0.5 0.0 0,1 -0.933013,-0.25 A 0.5,0.5 0.0 0,1 -0.25,-0.933013 A 0.5,0.5 0.0 0,1 0.25,-0.933013 A 0.5,0.5 180.0 0,1 0.933013,-0.25 A 0.5,0.5 -30.000000000000266 0,1 0.933013,0.25 M -0.2599,-0.927144 A 0.49,0.49 0.0 0,0 -0.927144,-0.2599 A 0.5,0.5 0.0 0,1 -0.5,-0.5 A 0.5,0.5 0.0 0,1 -0.2599,-0.927144 M 0.49,-0.4999 A 0.49,0.49 0.011694209715779905 1,0 -0.49,-0.4999 A 0.5,0.5 0.0 0,1 -0.25,-0.433013 A 0.5,0.5 0.0 0,1 0.25,-0.433013 A 0.5,0.5 0.0 0,1 0.49,-0.4999 M 0.927144,-0.2599 A 0.49,0.49 119.34058157502298 0,0 0.2599,-0.927144 A 0.5,0.5 -58.681163150047965 0,1 0.5,-0.5 A 0.5,0.5 0.0 0,1 0.927144,-0.2599 M -0.2599,-0.427144 A 0.49,0.49 0.0 1,0 -0.2599,0.427144 A 0.5,0.5 0.0 0,1 -0.2599,-0.427144 M 0.49,-0.0 A 0.49,0.49 0.0 0,0 -0.49,0.0 A 0.49,0.49 0.0 0,0 0.49,0.0 M -0.2599,0.927144 A 0.5,0.5 0.0 0,1 -0.5,0.5 A 0.5,0.5 0.0 0,1 -0.927144,0.2599 A 0.49,0.49 0.0 0,0 -0.2599,0.927144 M 0.49,0.4999 A 0.5,0.5 0.0 0,1 0.25,0.433013 A 0.5,0.5 0.0 0,1 -0.25,0.433013 A 0.5,0.5 0.0 0,1 -0.49,0.4999 A 0.49,0.49 -179.98830579028402 1,0 0.49,0.4999 M 0.2599,-0.427144 A 0.5,0.5 -58.6811631500469 0,1 0.2599,0.427144 A 0.49,0.49 119.34058157502298 1,0 0.2599,-0.427144 M 0.2599,0.927144 A 0.49,0.49 119.34058157502298 0,0 0.927144,0.2599 A 0.5,0.5 0.0 0,1 0.5,0.5 A 0.5,0.5 -58.681163150048015 0,1 0.2599,0.927144" />
      <path d="M 0.69104,0.767124 L 0.697432,0.767124 L 0.697432,0.80978 L 0.711924,0.767124 L 0.717905,0.767124 L 0.732466,0.809063 L 0.732466,0.767124 L 0.738857,0.767124 L 0.738857,0.817231 L 0.729937,0.817231 L 0.717939,0.782368 Q 0.716128,0.77707 0.715273,0.774336 Q 0.714521,0.776797 0.712881,0.781753 L 0.701021,0.817231 L 0.69104,0.817231 L 0.69104,0.767124" />
      <path d="M 0.750684,0.767124 L 0.757314,0.767124 L 0.757314,0.817231 L 0.750684,0.817231 L 0.750684,0.767124" />
      <path d="M 0.768936,0.767124 L 0.775293,0.767124 L 0.775293,0.806499 L 0.801611,0.767124 L 0.808413,0.767124 L 0.808413,0.817231 L 0.802056,0.817231 L 0.802056,0.777891 L 0.775737,0.817231 L 0.768936,0.817231 L 0.768936,0.767124" />
      <path d="M 0.69104,0.686631 L 0.697432,0.686631 L 0.697432,0.729287 L 0.711924,0.686631 L 0.717905,0.686631 L 0.732466,0.728569 L 0.732466,0.686631 L 0.738857,0.686631 L 0.738857,0.736738 L 0.729937,0.736738 L 0.717939,0.701875 Q 0.716128,0.696577 0.715273,0.693843 Q 0.714521,0.696304 0.712881,0.70126 L 0.701021,0.736738 L 0.69104,0.736738 L 0.69104,0.686631" />
      <path d="M 0.750684,0.686631 L 0.757314,0.686631 L 0.757314,0.736738 L 0.750684,0.736738 L 0.750684,0.686631" />
      <path d="M 0.768936,0.686631 L 0.775293,0.686631 L 0.775293,0.726006 L 0.801611,0.686631 L 0.808413,0.686631 L 0.808413,0.736738 L 0.802056,0.736738 L 0.802056,0.697397 L 0.775737,0.736738 L 0.768936,0.736738 L 0.768936,0.686631" />
      <path d="M -0.096113,0.777771 L -0.102744,0.779446 C -0.104556,0.764184 -0.125824,0.762037 -0.131711,0.776182 C -0.13568,0.786337 -0.133959,0.795742 -0.12655,0.804397 C -0.119142,0.80932 -0.105948,0.808231 -0.103496,0.796707 L -0.096968,0.798245 C -0.101373,0.821099 -0.14289,0.816329 -0.14041,0.787307 C -0.140336,0.777059 -0.136878,0.769397 -0.130037,0.764321 C -0.119652,0.757557 -0.098714,0.760757 -0.096113,0.777771" />
      <path d="M -0.087808,0.761877 L -0.050415,0.761877 L -0.050415,0.767791 L -0.081177,0.767791 L -0.081177,0.784846 L -0.053457,0.784846 L -0.053457,0.790725 L -0.081177,0.790725 L -0.081177,0.806072 L -0.051577,0.806072 L -0.051577,0.811985 L -0.087808,0.811985 L -0.087808,0.761877" />
      <path d="M -0.041323,0.761877 L -0.034966,0.761877 L -0.034966,0.801252 L -0.008647,0.761877 L -0.001846,0.761877 L -0.001846,0.811985 L -0.008203,0.811985 L -0.008203,0.772644 L -0.034521,0.811985 L -0.041323,0.811985 L -0.041323,0.761877" />
      <path d="M 0.022046,0.761877 L 0.028677,0.761877 L 0.028677,0.806072 L 0.045254,0.806072 L 0.045254,0.811985 L 0.005537,0.811985 L 0.005537,0.806072 L 0.022046,0.806072 L 0.022046,0.761877" />
      <path d="M 0.052192,0.761877 L 0.089585,0.761877 L 0.089585,0.767791 L 0.058823,0.767791 L 0.058823,0.784846 L 0.086543,0.784846 L 0.086543,0.790725 L 0.058823,0.790725 L 0.058823,0.806072 L 0.088423,0.806072 L 0.088423,0.811985 L 0.052192,0.811985 L 0.052192,0.761877" />
      <path d="M 0.098848,0.761877 L 0.105479,0.761877 L 0.105479,0.784128 L 0.113169,0.784128 Q 0.115732,0.784128 0.11686,0.783889 Q 0.120468,0.784363 0.128037,0.772302 L 0.134668,0.761877 L 0.143008,0.761877 L 0.134292,0.775515 Q 0.131694,0.779514 0.128789,0.78218 Q 0.127422,0.783411 0.12479,0.784675 C 0.145154,0.786192 0.143243,0.814847 0.121064,0.811985 L 0.098848,0.811985 L 0.098848,0.761877 M 0.105479,0.789871 L 0.105479,0.806448 L 0.121338,0.806448 C 0.1357,0.807482 0.136366,0.78863 0.119731,0.789871 L 0.105479,0.789871" />
      <path d="M -0.05896,0.691877 L -0.052568,0.691877 L -0.052568,0.734534 L -0.038076,0.691877 L -0.032095,0.691877 L -0.017534,0.733816 L -0.017534,0.691877 L -0.011143,0.691877 L -0.011143,0.741985 L -0.020063,0.741985 L -0.032061,0.707122 Q -0.033872,0.701824 -0.034727,0.699089 Q -0.035479,0.70155 -0.037119,0.706506 L -0.048979,0.741985 L -0.05896,0.741985 L -0.05896,0.691877" />
      <path d="M 0.000684,0.691877 L 0.007314,0.691877 L 0.007314,0.741985 L 0.000684,0.741985 L 0.000684,0.691877" />
      <path d="M 0.018936,0.691877 L 0.025293,0.691877 L 0.025293,0.731252 L 0.051611,0.691877 L 0.058413,0.691877 L 0.058413,0.741985 L 0.052056,0.741985 L 0.052056,0.702644 L 0.025737,0.741985 L 0.018936,0.741985 L 0.018936,0.691877" />
      <path d="M -0.820649,0.761877 L -0.814258,0.761877 L -0.814258,0.804534 L -0.799766,0.761877 L -0.793784,0.761877 L -0.779224,0.803816 L -0.779224,0.761877 L -0.772832,0.761877 L -0.772832,0.811985 L -0.781753,0.811985 L -0.79375,0.777122 Q -0.795562,0.771824 -0.796416,0.769089 Q -0.797168,0.77155 -0.798809,0.776506 L -0.810669,0.811985 L -0.820649,0.811985 L -0.820649,0.761877" />
      <path d="M -0.767637,0.761877 L -0.760596,0.761877 L -0.755093,0.777053 L -0.734141,0.777053 L -0.728296,0.761877 L -0.720742,0.761877 L -0.74125,0.811985 L -0.748394,0.811985 L -0.767637,0.761877 M -0.753179,0.782454 L -0.747676,0.797151 Q -0.745933,0.801902 -0.744976,0.806721 Q -0.743813,0.802654 -0.741421,0.796331 L -0.736191,0.782454 L -0.753179,0.782454" />
      <path d="M -0.720537,0.761877 L -0.712573,0.761877 L -0.699995,0.779343 Q -0.699277,0.780369 -0.697603,0.783103 Q -0.696475,0.781292 -0.695415,0.779753 L -0.682803,0.761877 L -0.6746,0.761877 L -0.693569,0.788367 L -0.675967,0.811985 L -0.683179,0.811985 L -0.693262,0.798689 Q -0.695552,0.795715 -0.697227,0.792981 Q -0.698423,0.795134 -0.70126,0.799133 L -0.710352,0.811985 L -0.718247,0.811985 L -0.701157,0.787991 L -0.720537,0.761877" />
      <path d="M -0.80896,0.691877 L -0.802568,0.691877 L -0.802568,0.734534 L -0.788076,0.691877 L -0.782095,0.691877 L -0.767534,0.733816 L -0.767534,0.691877 L -0.761143,0.691877 L -0.761143,0.741985 L -0.770063,0.741985 L -0.782061,0.707122 Q -0.783872,0.701824 -0.784727,0.699089 Q -0.785479,0.70155 -0.787119,0.706506 L -0.798979,0.741985 L -0.80896,0.741985 L -0.80896,0.691877" />
      <path d="M -0.749316,0.691877 L -0.742686,0.691877 L -0.742686,0.741985 L -0.749316,0.741985 L -0.749316,0.691877" />
      <path d="M -0.731064,0.691877 L -0.724707,0.691877 L -0.724707,0.731252 L -0.698389,0.691877 L -0.691587,0.691877 L -0.691587,0.741985 L -0.697944,0.741985 L -0.697944,0.702644 L -0.724263,0.741985 L -0.731064,0.741985 L -0.731064,0.691877" />
      <path d="M 0.69104,0.011877 L 0.697432,0.011877 L 0.697432,0.054534 L 0.711924,0.011877 L 0.717905,0.011877 L 0.732466,0.053816 L 0.732466,0.011877 L 0.738857,0.011877 L 0.738857,0.061985 L 0.729937,0.061985 L 0.717939,0.027122 Q 0.716128,0.021824 0.715273,0.019089 Q 0.714521,0.02155 0.712881,0.026506 L 0.701021,0.061985 L 0.69104,0.061985 L 0.69104,0.011877" />
      <path d="M 0.750684,0.011877 L 0.757314,0.011877 L 0.757314,0.061985 L 0.750684,0.061985 L 0.750684,0.011877" />
      <path d="M 0.768936,0.011877 L 0.775293,0.011877 L 0.775293,0.051252 L 0.801611,0.011877 L 0.808413,0.011877 L 0.808413,0.061985 L 0.802056,0.061985 L 0.802056,0.022644 L 0.775737,0.061985 L 0.768936,0.061985 L 0.768936,0.011877" />
      <path d="M 0.653887,-0.042229 L 0.647256,-0.040554 C 0.645444,-0.055816 0.624176,-0.057963 0.618289,-0.043818 C 0.61432,-0.033663 0.616041,-0.024258 0.62345,-0.015603 C 0.630858,-0.01068 0.644052,-0.011769 0.646504,-0.023293 L 0.653032,-0.021755 C 0.648627,0.001099 0.60711,-0.003671 0.60959,-0.032693 C 0.609664,-0.042941 0.613122,-0.050603 0.619963,-0.055679 C 0.630348,-0.062443 0.651286,-0.059243 0.653887,-0.042229" />
      <path d="M 0.662192,-0.058123 L 0.699585,-0.058123 L 0.699585,-0.052209 L 0.668823,-0.052209 L 0.668823,-0.035154 L 0.696543,-0.035154 L 0.696543,-0.029275 L 0.668823,-0.029275 L 0.668823,-0.013928 L 0.698423,-0.013928 L 0.698423,-0.008015 L 0.662192,-0.008015 L 0.662192,-0.058123" />
      <path d="M 0.708677,-0.058123 L 0.715034,-0.058123 L 0.715034,-0.018748 L 0.741353,-0.058123 L 0.748154,-0.058123 L 0.748154,-0.008015 L 0.741797,-0.008015 L 0.741797,-0.047356 L 0.715479,-0.008015 L 0.708677,-0.008015 L 0.708677,-0.058123" />
      <path d="M 0.772046,-0.058123 L 0.778677,-0.058123 L 0.778677,-0.013928 L 0.795254,-0.013928 L 0.795254,-0.008015 L 0.755537,-0.008015 L 0.755537,-0.013928 L 0.772046,-0.013928 L 0.772046,-0.058123" />
      <path d="M 0.802192,-0.058123 L 0.839585,-0.058123 L 0.839585,-0.052209 L 0.808823,-0.052209 L 0.808823,-0.035154 L 0.836543,-0.035154 L 0.836543,-0.029275 L 0.808823,-0.029275 L 0.808823,-0.013928 L 0.838423,-0.013928 L 0.838423,-0.008015 L 0.802192,-0.008015 L 0.802192,-0.058123" />
      <path d="M 0.848848,-0.058123 L 0.855479,-0.058123 L 0.855479,-0.035872 L 0.863169,-0.035872 Q 0.865732,-0.035872 0.86686,-0.036111 Q 0.870468,-0.035637 0.878037,-0.047698 L 0.884668,-0.058123 L 0.893008,-0.058123 L 0.884292,-0.044485 Q 0.881694,-0.040486 0.878789,-0.03782 Q 0.877422,-0.036589 0.87479,-0.035325 C 0.895154,-0.033808 0.893243,-0.005153 0.871064,-0.008015 L 0.848848,-0.008015 L 0.848848,-0.058123 M 0.855479,-0.030129 L 0.855479,-0.013552 L 0.871338,-0.013552 C 0.8857,-0.012518 0.886366,-0.03137 0.869731,-0.030129 L 0.855479,-0.030129" />
      <path d="M -0.096113,0.033018 L -0.102744,0.034692 C -0.104556,0.019431 -0.125824,0.017284 -0.131711,0.031428 C -0.13568,0.041583 -0.133959,0.050988 -0.12655,0.059644 C -0.119142,0.064567 -0.105948,0.063477 -0.103496,0.051953 L -0.096968,0.053491 C -0.101373,0.076345 -0.14289,0.071576 -0.14041,0.042554 C -0.140336,0.032306 -0.136878,0.024644 -0.130037,0.019568 C -0.119652,0.012804 -0.098714,0.016004 -0.096113,0.033018" />
      <path d="M -0.087808,0.017124 L -0.050415,0.017124 L -0.050415,0.023037 L -0.081177,0.023037 L -0.081177,0.040093 L -0.053457,0.040093 L -0.053457,0.045972 L -0.081177,0.045972 L -0.081177,0.061318 L -0.051577,0.061318 L -0.051577,0.067231 L -0.087808,0.067231 L -0.087808,0.017124" />
      <path d="M -0.041323,0.017124 L -0.034966,0.017124 L -0.034966,0.056499 L -0.008647,0.017124 L -0.001846,0.017124 L -0.001846,0.067231 L -0.008203,0.067231 L -0.008203,0.027891 L -0.034521,0.067231 L -0.041323,0.067231 L -0.041323,0.017124" />
      <path d="M 0.022046,0.017124 L 0.028677,0.017124 L 0.028677,0.061318 L 0.045254,0.061318 L 0.045254,0.067231 L 0.005537,0.067231 L 0.005537,0.061318 L 0.022046,0.061318 L 0.022046,0.017124" />
      <path d="M 0.052192,0.017124 L 0.089585,0.017124 L 0.089585,0.023037 L 0.058823,0.023037 L 0.058823,0.040093 L 0.086543,0.040093 L 0.086543,0.045972 L 0.058823,0.045972 L 0.058823,0.061318 L 0.088423,0.061318 L 0.088423,0.067231 L 0.052192,0.067231 L 0.052192,0.017124" />
      <path d="M 0.098848,0.017124 L 0.105479,0.017124 L 0.105479,0.039375 L 0.113169,0.039375 Q 0.115732,0.039375 0.11686,0.039136 Q 0.120468,0.039609 0.128037,0.027549 L 0.134668,0.017124 L 0.143008,0.017124 L 0.134292,0.030762 Q 0.131694,0.034761 0.128789,0.037427 Q 0.127422,0.038657 0.12479,0.039922 C 0.145154,0.041439 0.143243,0.070094 0.121064,0.067231 L 0.098848,0.067231 L 0.098848,0.017124 M 0.105479,0.045117 L 0.105479,0.061694 L 0.121338,0.061694 C 0.1357,0.062729 0.136366,0.043876 0.119731,0.045117 L 0.105479,0.045117" />
      <path d="M -0.096113,-0.047476 L -0.102744,-0.045801 C -0.104556,-0.061062 -0.125824,-0.063209 -0.131711,-0.049065 C -0.13568,-0.03891 -0.133959,-0.029505 -0.12655,-0.02085 C -0.119142,-0.015927 -0.105948,-0.017016 -0.103496,-0.02854 L -0.096968,-0.027002 C -0.101373,-0.004148 -0.14289,-0.008917 -0.14041,-0.037939 C -0.140336,-0.048188 -0.136878,-0.05585 -0.130037,-0.060925 C -0.119652,-0.067689 -0.098714,-0.064489 -0.096113,-0.047476" />
      <path d="M -0.087808,-0.063369 L -0.050415,-0.063369 L -0.050415,-0.057456 L -0.081177,-0.057456 L -0.081177,-0.0404 L -0.053457,-0.0404 L -0.053457,-0.034521 L -0.081177,-0.034521 L -0.081177,-0.019175 L -0.051577,-0.019175 L -0.051577,-0.013262 L -0.087808,-0.013262 L -0.087808,-0.063369" />
      <path d="M -0.041323,-0.063369 L -0.034966,-0.063369 L -0.034966,-0.023994 L -0.008647,-0.063369 L -0.001846,-0.063369 L -0.001846,-0.013262 L -0.008203,-0.013262 L -0.008203,-0.052603 L -0.034521,-0.013262 L -0.041323,-0.013262 L -0.041323,-0.063369" />
      <path d="M 0.022046,-0.063369 L 0.028677,-0.063369 L 0.028677,-0.019175 L 0.045254,-0.019175 L 0.045254,-0.013262 L 0.005537,-0.013262 L 0.005537,-0.019175 L 0.022046,-0.019175 L 0.022046,-0.063369" />
      <path d="M 0.052192,-0.063369 L 0.089585,-0.063369 L 0.089585,-0.057456 L 0.058823,-0.057456 L 0.058823,-0.0404 L 0.086543,-0.0404 L 0.086543,-0.034521 L 0.058823,-0.034521 L 0.058823,-0.019175 L 0.088423,-0.019175 L 0.088423,-0.013262 L 0.052192,-0.013262 L 0.052192,-0.063369" />
      <path d="M 0.098848,-0.063369 L 0.105479,-0.063369 L 0.105479,-0.041118 L 0.113169,-0.041118 Q 0.115732,-0.041118 0.11686,-0.041357 Q 0.120468,-0.040884 0.128037,-0.052944 L 0.134668,-0.063369 L 0.143008,-0.063369 L 0.134292,-0.049731 Q 0.131694,-0.045732 0.128789,-0.043066 Q 0.127422,-0.041836 0.12479,-0.040571 C 0.145154,-0.039055 0.143243,-0.010399 0.121064,-0.013262 L 0.098848,-0.013262 L 0.098848,-0.063369 M 0.105479,-0.035376 L 0.105479,-0.018799 L 0.121338,-0.018799 C 0.1357,-0.017765 0.136366,-0.036617 0.119731,-0.035376 L 0.105479,-0.035376" />
      <path d="M -0.820649,0.011877 L -0.814258,0.011877 L -0.814258,0.054534 L -0.799766,0.011877 L -0.793784,0.011877 L -0.779224,0.053816 L -0.779224,0.011877 L -0.772832,0.011877 L -0.772832,0.061985 L -0.781753,0.061985 L -0.79375,0.027122 Q -0.795562,0.021824 -0.796416,0.019089 Q -0.797168,0.02155 -0.798809,0.026506 L -0.810669,0.061985 L -0.820649,0.061985 L -0.820649,0.011877" />
      <path d="M -0.767637,0.011877 L -0.760596,0.011877 L -0.755093,0.027053 L -0.734141,0.027053 L -0.728296,0.011877 L -0.720742,0.011877 L -0.74125,0.061985 L -0.748394,0.061985 L -0.767637,0.011877 M -0.753179,0.032454 L -0.747676,0.047151 Q -0.745933,0.051902 -0.744976,0.056721 Q -0.743813,0.052654 -0.741421,0.046331 L -0.736191,0.032454 L -0.753179,0.032454" />
      <path d="M -0.720537,0.011877 L -0.712573,0.011877 L -0.699995,0.029343 Q -0.699277,0.030369 -0.697603,0.033103 Q -0.696475,0.031292 -0.695415,0.029753 L -0.682803,0.011877 L -0.6746,0.011877 L -0.693569,0.038367 L -0.675967,0.061985 L -0.683179,0.061985 L -0.693262,0.048689 Q -0.695552,0.045715 -0.697227,0.042981 Q -0.698423,0.045134 -0.70126,0.049133 L -0.710352,0.061985 L -0.718247,0.061985 L -0.701157,0.037991 L -0.720537,0.011877" />
      <path d="M -0.846113,-0.042229 L -0.852744,-0.040554 C -0.854556,-0.055816 -0.875824,-0.057963 -0.881711,-0.043818 C -0.88568,-0.033663 -0.883959,-0.024258 -0.87655,-0.015603 C -0.869142,-0.01068 -0.855948,-0.011769 -0.853496,-0.023293 L -0.846968,-0.021755 C -0.851373,0.001099 -0.89289,-0.003671 -0.89041,-0.032693 C -0.890336,-0.042941 -0.886878,-0.050603 -0.880037,-0.055679 C -0.869652,-0.062443 -0.848714,-0.059243 -0.846113,-0.042229" />
      <path d="M -0.837808,-0.058123 L -0.800415,-0.058123 L -0.800415,-0.052209 L -0.831177,-0.052209 L -0.831177,-0.035154 L -0.803457,-0.035154 L -0.803457,-0.029275 L -0.831177,-0.029275 L -0.831177,-0.013928 L -0.801577,-0.013928 L -0.801577,-0.008015 L -0.837808,-0.008015 L -0.837808,-0.058123" />
      <path d="M -0.791323,-0.058123 L -0.784966,-0.058123 L -0.784966,-0.018748 L -0.758647,-0.058123 L -0.751846,-0.058123 L -0.751846,-0.008015 L -0.758203,-0.008015 L -0.758203,-0.047356 L -0.784521,-0.008015 L -0.791323,-0.008015 L -0.791323,-0.058123" />
      <path d="M -0.727954,-0.058123 L -0.721323,-0.058123 L -0.721323,-0.013928 L -0.704746,-0.013928 L -0.704746,-0.008015 L -0.744463,-0.008015 L -0.744463,-0.013928 L -0.727954,-0.013928 L -0.727954,-0.058123" />
      <path d="M -0.697808,-0.058123 L -0.660415,-0.058123 L -0.660415,-0.052209 L -0.691177,-0.052209 L -0.691177,-0.035154 L -0.663457,-0.035154 L -0.663457,-0.029275 L -0.691177,-0.029275 L -0.691177,-0.013928 L -0.661577,-0.013928 L -0.661577,-0.008015 L -0.697808,-0.008015 L -0.697808,-0.058123" />
      <path d="M -0.651152,-0.058123 L -0.644521,-0.058123 L -0.644521,-0.035872 L -0.636831,-0.035872 Q -0.634268,-0.035872 -0.63314,-0.036111 Q -0.629532,-0.035637 -0.621963,-0.047698 L -0.615332,-0.058123 L -0.606992,-0.058123 L -0.615708,-0.044485 Q -0.618306,-0.040486 -0.621211,-0.03782 Q -0.622578,-0.036589 -0.62521,-0.035325 C -0.604846,-0.033808 -0.606757,-0.005153 -0.628936,-0.008015 L -0.651152,-0.008015 L -0.651152,-0.058123 M -0.644521,-0.030129 L -0.644521,-0.013552 L -0.628662,-0.013552 C -0.6143,-0.012518 -0.613634,-0.03137 -0.630269,-0.030129 L -0.644521,-0.030129" />
      <path d="M 0.69104,-0.738123 L 0.697432,-0.738123 L 0.697432,-0.695466 L 0.711924,-0.738123 L 0.717905,-0.738123 L 0.732466,-0.696184 L 0.732466,-0.738123 L 0.738857,-0.738123 L 0.738857,-0.688015 L 0.729937,-0.688015 L 0.717939,-0.722878 Q 0.716128,-0.728176 0.715273,-0.730911 Q 0.714521,-0.72845 0.712881,-0.723494 L 0.701021,-0.688015 L 0.69104,-0.688015 L 0.69104,-0.738123" />
      <path d="M 0.750684,-0.738123 L 0.757314,-0.738123 L 0.757314,-0.688015 L 0.750684,-0.688015 L 0.750684,-0.738123" />
      <path d="M 0.768936,-0.738123 L 0.775293,-0.738123 L 0.775293,-0.698748 L 0.801611,-0.738123 L 0.808413,-0.738123 L 0.808413,-0.688015 L 0.802056,-0.688015 L 0.802056,-0.727356 L 0.775737,-0.688015 L 0.768936,-0.688015 L 0.768936,-0.738123" />
      <path d="M 0.679351,-0.808123 L 0.685742,-0.808123 L 0.685742,-0.765466 L 0.700234,-0.808123 L 0.706216,-0.808123 L 0.720776,-0.766184 L 0.720776,-0.808123 L 0.727168,-0.808123 L 0.727168,-0.758015 L 0.718247,-0.758015 L 0.70625,-0.792878 Q 0.704438,-0.798176 0.703584,-0.800911 Q 0.702832,-0.79845 0.701191,-0.793494 L 0.689331,-0.758015 L 0.679351,-0.758015 L 0.679351,-0.808123" />
      <path d="M 0.732363,-0.808123 L 0.739404,-0.808123 L 0.744907,-0.792947 L 0.765859,-0.792947 L 0.771704,-0.808123 L 0.779258,-0.808123 L 0.75875,-0.758015 L 0.751606,-0.758015 L 0.732363,-0.808123 M 0.746821,-0.787546 L 0.752324,-0.772849 Q 0.754067,-0.768098 0.755024,-0.763279 Q 0.756187,-0.767346 0.758579,-0.773669 L 0.763809,-0.787546 L 0.746821,-0.787546" />
      <path d="M 0.779463,-0.808123 L 0.787427,-0.808123 L 0.800005,-0.790657 Q 0.800723,-0.789631 0.802397,-0.786897 Q 0.803525,-0.788708 0.804585,-0.790247 L 0.817197,-0.808123 L 0.8254,-0.808123 L 0.806431,-0.781633 L 0.824033,-0.758015 L 0.816821,-0.758015 L 0.806738,-0.771311 Q 0.804448,-0.774285 0.802773,-0.777019 Q 0.801577,-0.774866 0.79874,-0.770867 L 0.789648,-0.758015 L 0.781753,-0.758015 L 0.798843,-0.782009 L 0.779463,-0.808123" />
      <path d="M -0.096113,-0.722229 L -0.102744,-0.720554 C -0.104556,-0.735816 -0.125824,-0.737963 -0.131711,-0.723818 C -0.13568,-0.713663 -0.133959,-0.704258 -0.12655,-0.695603 C -0.119142,-0.69068 -0.105948,-0.691769 -0.103496,-0.703293 L -0.096968,-0.701755 C -0.101373,-0.678901 -0.14289,-0.683671 -0.14041,-0.712693 C -0.140336,-0.722941 -0.136878,-0.730603 -0.130037,-0.735679 C -0.119652,-0.742443 -0.098714,-0.739243 -0.096113,-0.722229" />
      <path d="M -0.087808,-0.738123 L -0.050415,-0.738123 L -0.050415,-0.732209 L -0.081177,-0.732209 L -0.081177,-0.715154 L -0.053457,-0.715154 L -0.053457,-0.709275 L -0.081177,-0.709275 L -0.081177,-0.693928 L -0.051577,-0.693928 L -0.051577,-0.688015 L -0.087808,-0.688015 L -0.087808,-0.738123" />
      <path d="M -0.041323,-0.738123 L -0.034966,-0.738123 L -0.034966,-0.698748 L -0.008647,-0.738123 L -0.001846,-0.738123 L -0.001846,-0.688015 L -0.008203,-0.688015 L -0.008203,-0.727356 L -0.034521,-0.688015 L -0.041323,-0.688015 L -0.041323,-0.738123" />
      <path d="M 0.022046,-0.738123 L 0.028677,-0.738123 L 0.028677,-0.693928 L 0.045254,-0.693928 L 0.045254,-0.688015 L 0.005537,-0.688015 L 0.005537,-0.693928 L 0.022046,-0.693928 L 0.022046,-0.738123" />
      <path d="M 0.052192,-0.738123 L 0.089585,-0.738123 L 0.089585,-0.732209 L 0.058823,-0.732209 L 0.058823,-0.715154 L 0.086543,-0.715154 L 0.086543,-0.709275 L 0.058823,-0.709275 L 0.058823,-0.693928 L 0.088423,-0.693928 L 0.088423,-0.688015 L 0.052192,-0.688015 L 0.052192,-0.738123" />
      <path d="M 0.098848,-0.738123 L 0.105479,-0.738123 L 0.105479,-0.715872 L 0.113169,-0.715872 Q 0.115732,-0.715872 0.11686,-0.716111 Q 0.120468,-0.715637 0.128037,-0.727698 L 0.134668,-0.738123 L 0.143008,-0.738123 L 0.134292,-0.724485 Q 0.131694,-0.720486 0.128789,-0.71782 Q 0.127422,-0.716589 0.12479,-0.715325 C 0.145154,-0.713808 0.143243,-0.685153 0.121064,-0.688015 L 0.098848,-0.688015 L 0.098848,-0.738123 M 0.105479,-0.710129 L 0.105479,-0.693552 L 0.121338,-0.693552 C 0.1357,-0.692518 0.136366,-0.71137 0.119731,-0.710129 L 0.105479,-0.710129" />
      <path d="M -0.070649,-0.808123 L -0.064258,-0.808123 L -0.064258,-0.765466 L -0.049766,-0.808123 L -0.043784,-0.808123 L -0.029224,-0.766184 L -0.029224,-0.808123 L -0.022832,-0.808123 L -0.022832,-0.758015 L -0.031753,-0.758015 L -0.04375,-0.792878 Q -0.045562,-0.798176 -0.046416,-0.800911 Q -0.047168,-0.79845 -0.048809,-0.793494 L -0.060669,-0.758015 L -0.070649,-0.758015 L -0.070649,-0.808123" />
      <path d="M -0.017637,-0.808123 L -0.010596,-0.808123 L -0.005093,-0.792947 L 0.015859,-0.792947 L 0.021704,-0.808123 L 0.029258,-0.808123 L 0.00875,-0.758015 L 0.001606,-0.758015 L -0.017637,-0.808123 M -0.003179,-0.787546 L 0.002324,-0.772849 Q 0.004067,-0.768098 0.005024,-0.763279 Q 0.006187,-0.767346 0.008579,-0.773669 L 0.013809,-0.787546 L -0.003179,-0.787546" />
      <path d="M 0.029463,-0.808123 L 0.037427,-0.808123 L 0.050005,-0.790657 Q 0.050723,-0.789631 0.052397,-0.786897 Q 0.053525,-0.788708 0.054585,-0.790247 L 0.067197,-0.808123 L 0.0754,-0.808123 L 0.056431,-0.781633 L 0.074033,-0.758015 L 0.066821,-0.758015 L 0.056738,-0.771311 Q 0.054448,-0.774285 0.052773,-0.777019 Q 0.051577,-0.774866 0.04874,-0.770867 L 0.039648,-0.758015 L 0.031753,-0.758015 L 0.048843,-0.782009 L 0.029463,-0.808123" />
      <path d="M -0.820649,-0.732876 L -0.814258,-0.732876 L -0.814258,-0.69022 L -0.799766,-0.732876 L -0.793784,-0.732876 L -0.779224,-0.690937 L -0.779224,-0.732876 L -0.772832,-0.732876 L -0.772832,-0.682769 L -0.781753,-0.682769 L -0.79375,-0.717632 Q -0.795562,-0.72293 -0.796416,-0.725664 Q -0.797168,-0.723203 -0.798809,-0.718247 L -0.810669,-0.682769 L -0.820649,-0.682769 L -0.820649,-0.732876" />
      <path d="M -0.767637,-0.732876 L -0.760596,-0.732876 L -0.755093,-0.7177 L -0.734141,-0.7177 L -0.728296,-0.732876 L -0.720742,-0.732876 L -0.74125,-0.682769 L -0.748394,-0.682769 L -0.767637,-0.732876 M -0.753179,-0.7123 L -0.747676,-0.697603 Q -0.745933,-0.692852 -0.744976,-0.688032 Q -0.743813,-0.6921 -0.741421,-0.698423 L -0.736191,-0.7123 L -0.753179,-0.7123" />
      <path d="M -0.720537,-0.732876 L -0.712573,-0.732876 L -0.699995,-0.71541 Q -0.699277,-0.714385 -0.697603,-0.71165 Q -0.696475,-0.713462 -0.695415,-0.715 L -0.682803,-0.732876 L -0.6746,-0.732876 L -0.693569,-0.706387 L -0.675967,-0.682769 L -0.683179,-0.682769 L -0.693262,-0.696064 Q -0.695552,-0.699038 -0.697227,-0.701772 Q -0.698423,-0.699619 -0.70126,-0.69562 L -0.710352,-0.682769 L -0.718247,-0.682769 L -0.701157,-0.706763 L -0.720537,-0.732876" />
      <path d="M -0.820649,-0.813369 L -0.814258,-0.813369 L -0.814258,-0.770713 L -0.799766,-0.813369 L -0.793784,-0.813369 L -0.779224,-0.771431 L -0.779224,-0.813369 L -0.772832,-0.813369 L -0.772832,-0.763262 L -0.781753,-0.763262 L -0.79375,-0.798125 Q -0.795562,-0.803423 -0.796416,-0.806157 Q -0.797168,-0.803696 -0.798809,-0.79874 L -0.810669,-0.763262 L -0.820649,-0.763262 L -0.820649,-0.813369" />
      <path d="M -0.767637,-0.813369 L -0.760596,-0.813369 L -0.755093,-0.798193 L -0.734141,-0.798193 L -0.728296,-0.813369 L -0.720742,-0.813369 L -0.74125,-0.763262 L -0.748394,-0.763262 L -0.767637,-0.813369 M -0.753179,-0.792793 L -0.747676,-0.778096 Q -0.745933,-0.773345 -0.744976,-0.768525 Q -0.743813,-0.772593 -0.741421,-0.778916 L -0.736191,-0.792793 L -0.753179,-0.792793" />
      <path d="M -0.720537,-0.813369 L -0.712573,-0.813369 L -0.699995,-0.795903 Q -0.699277,-0.794878 -0.697603,-0.792144 Q -0.696475,-0.793955 -0.695415,-0.795493 L -0.682803,-0.813369 L -0.6746,-0.813369 L -0.693569,-0.78688 L -0.675967,-0.763262 L -0.683179,-0.763262 L -0.693262,-0.776558 Q -0.695552,-0.779531 -0.697227,-0.782266 Q -0.698423,-0.780112 -0.70126,-0.776113 L -0.710352,-0.763262 L -0.718247,-0.763262 L -0.701157,-0.787256 L -0.720537,-0.813369" />
    </g>
  </g>
</svg>