<?xml version='1.0' encoding='utf-8'?>
<svg width="100.089999mm" height="89.739501mm" viewBox="-21.153999 -19.756955 42.291249 37.91783" version="1.1" xmlns="http://www.w3.org/2000/svg">
  <g transform="scale(1,-1)" stroke-linecap="round">
    <g fill="none" stroke="rgb(0,0,0)" stroke-width="0.03802789924227124" id="Visible">
      <line x1="16.711371" y1="17.161275" x2="-0.916091" y2="19.737941" />
      <line x1="-10.364508" y1="14.930779" x2="-0.916091" y2="19.737941" />
      <line x1="7.262954" y1="12.354113" x2="-10.364508" y2="14.930779" />
      <line x1="7.262954" y1="12.354113" x2="16.711371" y2="17.161275" />
      <line x1="16.711371" y1="17.161275" x2="21.118236" y2="11.706626" />
      <line x1="-21.134985" y1="6.949528" x2="-10.364508" y2="14.930779" />
      <line x1="21.118236" y1="-7.535307" x2="21.118236" y2="11.706626" />
      <line x1="-21.134985" y1="-15.178695" x2="-21.134985" y2="6.949528" />
      <line x1="-0.863404" y1="3.986362" x2="7.262954" y2="12.354113" />
      <line x1="-0.863404" y1="3.986362" x2="-21.134985" y2="6.949528" />
      <line x1="7.262954" y1="12.354113" x2="11.669819" y2="6.899463" />
      <line x1="11.669819" y1="6.899463" x2="21.118236" y2="11.706626" />
      <line x1="21.118236" y1="-7.535307" x2="16.711371" y2="-11.701624" />
      <line x1="11.669819" y1="-12.34247" x2="21.118236" y2="-7.535307" />
      <line x1="11.669819" y1="-12.34247" x2="11.669819" y2="6.899463" />
      <line x1="7.262954" y1="-16.508787" x2="16.711371" y2="-11.701624" />
      <line x1="-0.863404" y1="-18.141861" x2="-0.863404" y2="3.986362" />
      <line x1="-0.863404" y1="-18.141861" x2="-21.134985" y2="-15.178695" />
      <line x1="11.669819" y1="6.899463" x2="-0.863404" y2="3.986362" />
      <line x1="11.669819" y1="-12.34247" x2="7.262954" y2="-16.508787" />
      <line x1="-0.863404" y1="-18.141861" x2="11.669819" y2="-12.34247" />
      <line x1="7.262954" y1="-16.508787" x2="-0.863404" y2="-18.141861" />
    </g>
    <g fill="none" stroke="rgb(99,99,99)" stroke-width="0.03802789924227124" id="Hidden" stroke-dasharray="0.000966 0.114567">
      <line x1="-5.322957" y1="15.571624" x2="1.446013" y2="16.129248" />
      <line x1="1.446013" y1="16.129248" x2="-0.916091" y2="19.737941" />
      <line x1="-0.916091" y1="19.737941" x2="-5.322957" y2="15.571624" />
      <line x1="1.446013" y1="-3.112684" x2="1.446013" y2="16.129248" />
      <line x1="-5.322957" y1="-3.670309" x2="1.446013" y2="-3.112684" />
      <line x1="-5.322957" y1="-3.670309" x2="-5.322957" y2="15.571624" />
      <line x1="19.073475" y1="13.552583" x2="16.711371" y2="17.161275" />
      <line x1="19.073475" y1="13.552583" x2="1.446013" y2="16.129248" />
      <line x1="-10.364508" y1="14.930779" x2="-14.771374" y2="10.764462" />
      <line x1="-14.771374" y1="10.764462" x2="-5.322957" y2="15.571624" />
      <line x1="19.073475" y1="-5.68935" x2="19.073475" y2="13.552583" />
      <line x1="19.073475" y1="-5.68935" x2="1.446013" y2="-3.112684" />
      <line x1="-0.916091" y1="-9.124958" x2="-5.322957" y2="-3.670309" />
      <line x1="1.446013" y1="-3.112684" x2="-0.916091" y2="-9.124958" />
      <line x1="-14.771374" y1="-8.477471" x2="-5.322957" y2="-3.670309" />
      <line x1="-14.771374" y1="-8.477471" x2="-14.771374" y2="10.764462" />
      <line x1="21.118236" y1="11.706626" x2="19.073475" y2="13.552583" />
      <line x1="-14.771374" y1="10.764462" x2="-21.134985" y2="6.949528" />
      <line x1="19.073475" y1="-5.68935" x2="21.118236" y2="-7.535307" />
      <line x1="16.711371" y1="-11.701624" x2="-0.916091" y2="-9.124958" />
      <line x1="16.711371" y1="-11.701624" x2="19.073475" y2="-5.68935" />
      <line x1="-10.364508" y1="-13.932121" x2="-14.771374" y2="-8.477471" />
      <line x1="-10.364508" y1="-13.932121" x2="-0.916091" y2="-9.124958" />
      <line x1="-14.771374" y1="-8.477471" x2="-21.134985" y2="-15.178695" />
      <line x1="7.262954" y1="-16.508787" x2="-10.364508" y2="-13.932121" />
      <line x1="-21.134985" y1="-15.178695" x2="-10.364508" y2="-13.932121" />
    </g>
  </g>
</svg>