<?xml version='1.0' encoding='utf-8'?>
<svg width="100.089989mm" height="13.093747mm" viewBox="-0.000798 -0.085182 1.001332 0.130994" version="1.1" xmlns="http://www.w3.org/2000/svg">
  <g transform="scale(1,-1)" stroke-linecap="round">
    <g fill="none" stroke="rgb(0,0,0)" stroke-width="0.0009003885533792664">
      <path d="M 1.0,-0.0 C 0.829823,0.035412 0.658159,0.060683 0.48501,0.075813 C 0.403802,0.083052 0.322454,0.085791 0.240967,0.084029 C 0.198485,0.08366 0.156475,0.079149 0.114938,0.070497 C 0.074523,0.05954 0.027058,0.048994 0.001793,0.012613 C -0.0025,0.000458 0.001085,-0.00896 0.012548,-0.01564 C 0.02178,-0.020765 0.031585,-0.024392 0.041962,-0.026521 C 0.062557,-0.030869 0.083358,-0.033834 0.104363,-0.035416 C 0.149789,-0.038322 0.195215,-0.041227 0.24064,-0.044133 C 0.321442,-0.046309 0.402208,-0.045216 0.482939,-0.040853 C 0.655652,-0.03182 0.828005,-0.018202 1.0,-0.0" />
    </g>
  </g>
</svg>