<?xml version="1.0" encoding="UTF-8" standalone="no"?>
<svg
   width="524"
   height="177"
   version="1.1"
   viewBox="0 0 524 177"
   id="svg43"
   sodipodi:docname="logo-banner.svg"
   inkscape:version="1.4.2 (f4327f4, 2025-05-13)"
   xmlns:inkscape="http://www.inkscape.org/namespaces/inkscape"
   xmlns:sodipodi="http://sodipodi.sourceforge.net/DTD/sodipodi-0.dtd"
   xmlns:xlink="http://www.w3.org/1999/xlink"
   xmlns="http://www.w3.org/2000/svg"
   xmlns:svg="http://www.w3.org/2000/svg">
  <sodipodi:namedview
     id="namedview43"
     pagecolor="#ffffff"
     bordercolor="#000000"
     borderopacity="0.25"
     inkscape:showpageshadow="2"
     inkscape:pageopacity="0.0"
     inkscape:pagecheckerboard="0"
     inkscape:deskcolor="#d1d1d1"
     showgrid="false"
     inkscape:zoom="2.3910714"
     inkscape:cx="262.01643"
     inkscape:cy="90.12696"
     inkscape:window-width="1920"
     inkscape:window-height="1129"
     inkscape:window-x="-8"
     inkscape:window-y="-8"
     inkscape:window-maximized="1"
     inkscape:current-layer="svg43" />
  <defs
     id="defs17">
    <pattern
       id="a"
       xlink:href="#b"
       patternTransform="matrix(1.7678 1.7678 -1.7678 1.7678 192.36 370.15)"
       preserveAspectRatio="xMidYMid" />
    <pattern
       id="b"
       xlink:href="#c"
       patternTransform="matrix(.35355 .35355 -.35355 .35355 0 0)"
       preserveAspectRatio="xMidYMid" />
    <pattern
       id="c"
       width="2.5"
       height="1"
       fill="#b3d2e5"
       patternTransform="translate(0) scale(2)"
       patternUnits="userSpaceOnUse"
       preserveAspectRatio="xMidYMid">
      <rect
         y="-.5"
         width="1"
         height="2"
         id="rect1" />
    </pattern>
    <linearGradient
       id="j"
       x1="0.58611"
       x2="7.7051001"
       y1="-48.682999"
       y2="-48.682999"
       gradientTransform="translate(42.47)"
       gradientUnits="userSpaceOnUse">
      <stop
         stop-color="#7e5e11"
         offset="0"
         id="stop1" />
      <stop
         stop-color="#dfaf2b"
         offset=".3"
         id="stop2" />
      <stop
         stop-color="#fbc600"
         offset=".5"
         id="stop3" />
      <stop
         stop-color="#e1af2a"
         offset=".7"
         id="stop4" />
      <stop
         stop-color="#7e5e10"
         offset="1"
         id="stop5" />
    </linearGradient>
    <linearGradient
       id="i"
       x1="38.001999"
       x2="38.932999"
       y1="-46.189999"
       y2="-46.189999"
       gradientUnits="userSpaceOnUse">
      <stop
         stop-color="#75570f"
         offset="0"
         id="stop6" />
      <stop
         stop-color="#ac821a"
         offset="1"
         id="stop7" />
    </linearGradient>
    <linearGradient
       id="h"
       x1="37.832001"
       x2="40.377998"
       y1="-41.174"
       y2="-41.174"
       gradientUnits="userSpaceOnUse">
      <stop
         stop-color="#ca9921"
         offset="0"
         id="stop8" />
      <stop
         stop-color="#f3b81c"
         offset="1"
         id="stop9" />
    </linearGradient>
    <linearGradient
       id="g"
       x1="56.424"
       x2="57.352001"
       y1="-44.623001"
       y2="-44.623001"
       gradientUnits="userSpaceOnUse">
      <stop
         stop-color="#a37b19"
         offset="0"
         id="stop10" />
      <stop
         stop-color="#75570f"
         offset="1"
         id="stop11" />
    </linearGradient>
    <linearGradient
       id="f"
       x1="42.707001"
       x2="46.172001"
       y1="-40.721001"
       y2="-40.721001"
       gradientUnits="userSpaceOnUse">
      <stop
         stop-color="#fbc100"
         offset="0"
         id="stop12" />
      <stop
         stop-color="#ffcb31"
         offset="1"
         id="stop13" />
    </linearGradient>
    <linearGradient
       id="e"
       x1="51.320999"
       x2="53.855"
       y1="-42.301998"
       y2="-42.301998"
       gradientUnits="userSpaceOnUse">
      <stop
         stop-color="#f4b700"
         offset="0"
         id="stop14" />
      <stop
         stop-color="#c1911f"
         offset="1"
         id="stop15" />
    </linearGradient>
    <linearGradient
       id="d"
       x1="47.639999"
       x2="51.112999"
       y1="-39.195999"
       y2="-39.195999"
       gradientUnits="userSpaceOnUse">
      <stop
         stop-color="#ffcb31"
         offset="0"
         id="stop16" />
      <stop
         stop-color="#fbc100"
         offset="1"
         id="stop17" />
    </linearGradient>
  </defs>
  <g
     transform="translate(-197.99416,-423.43512)"
     id="g43">
    <g
       transform="translate(60.09,104.54)"
       id="g42">
      <g
         stroke="#3776ab"
         id="g20">
        <g
           transform="matrix(4.9276,0,0,4.9276,191.48,606.06)"
           stroke-linecap="round"
           stroke-miterlimit="20"
           stroke-width="0.60882"
           id="g18">
          <path
             d="m -8.538,-52.986 h 25.367 l 1e-6,24.353 -4.0588,4.0588 -21.309,-10e-7 z"
             fill="#ffffff"
             id="path17" />
          <path
             d="m 12.771,-24.574 v -4.0588 h 4.0588"
             fill="#eaf2f8"
             id="path18" />
        </g>
        <path
           d="m 197.06,438.91 c 2.7692,5.1332 10.197,8.1286 17.71,7.1419 m 38.104,-19.508 c 0.82411,2.1429 1.3226,4.3434 1.4867,6.5641 l 10.456,5.2042 c -0.55464,4.2724 -2.0998,8.447 -4.5714,12.35 l -12.661,0.75311 c -3.24,3.6055 -7.4941,6.6796 -12.487,9.023 l -1.0208,9.1334 c -5.4068,1.7896 -11.192,2.9117 -17.114,3.3197 l -7.2342,-7.5322 c -5.9489,-0.22117 -11.767,-1.3415 -17.077,-3.2883 l -11.476,3.9291 c -4.8521,-2.4822 -9.092,-5.5354 -12.542,-9.0306 l 5.4266,-8.285 c -2.7092,-3.8266 -4.273,-8.0211 -4.5902,-12.312 l -10.455,-5.2042 c 0.5529,-4.2724 2.0998,-8.447 4.5716,-12.35 l 7.3709,-0.4365"
           fill="none"
           stroke-width="2"
           id="path19" />
        <path
           d="m 197.06,414.36 c 2.7692,5.1332 10.197,8.1286 17.71,7.1419 19.817,-5.6035 -22.119,-17.747 -17.71,-7.1419 z m -38.047,-7.7418 c 0.5529,-4.2724 2.0998,-8.447 4.5716,-12.35 l 5.0477,-0.30264 c 17.156,-0.99231 27.875,-32.849 40.427,-19.646 l 4.1793,4.351 39.635,23.321 c 0.8241,2.1429 1.3226,4.3434 1.4867,6.5641 l 10.456,5.2042 c -0.55465,4.2724 -2.0998,8.447 -4.5714,12.35 l -12.661,0.7531 c -3.24,3.6055 -7.4941,6.6796 -12.487,9.023 l -1.0208,9.1334 c -5.4068,1.7896 -11.192,2.9117 -17.114,3.3197 l -7.2342,-7.5322 c -5.9489,-0.22116 -11.767,-1.3415 -17.077,-3.2889 l -11.476,3.9291 c -4.8521,-2.4822 -9.092,-5.5354 -12.542,-9.0306 l 5.4266,-8.285 c -2.7092,-3.8266 -4.273,-8.0211 -4.5902,-12.312 z"
           fill="url(#a)"
           stroke-width="2"
           id="path20" />
      </g>
      <g
         transform="matrix(4.9276,0,0,4.9276,-17.713,606.14)"
         stroke="#000000"
         id="g36">
        <path
           d="m 48.901,-46.384 c -2.0387,-1.4678 -5.5201,-0.42635 -5.5201,1.6513 0,3.111 6.4696,3.111 6.4696,0 0,-0.61955 -0.34161,-1.2137 -0.94951,-1.6513 z m -10.899,1.9826 -2.1218,-1.0562 c 0.11253,-0.86701 0.42613,-1.7142 0.9277,-2.5063 l 2.5693,-0.15279 c 0.65748,-0.7317 1.5208,-1.3556 2.5341,-1.8311 l 0.2072,-1.8535 c 1.0972,-0.36321 2.2713,-0.59093 3.4731,-0.67365 l 1.4681,1.5286 c 1.2073,0.04485 2.388,0.27223 3.4656,0.66739 l 2.329,-0.79733 c 0.98471,0.5038 1.8451,1.1233 2.5454,1.8327 l -1.1012,1.6814 c 0.54978,0.77655 0.86714,1.6278 0.93149,2.4985 l 2.1218,1.0562 c -0.11253,0.86701 -0.42613,1.7142 -0.9277,2.5063 l -2.5693,0.15279 c -0.65748,0.7317 -1.5208,1.3556 -2.5341,1.8311 l -0.2072,1.8535 c -1.0972,0.36321 -2.2713,0.59093 -3.4731,0.67366 l -1.4681,-1.5286 c -1.2073,-0.04485 -2.388,-0.27223 -3.4656,-0.66738 l -2.329,0.79733 c -0.98471,-0.5038 -1.8451,-1.1233 -2.5454,-1.8327 l 1.1012,-1.6814 c -0.54978,-0.77655 -0.86714,-1.6278 -0.93149,-2.4985 z"
           fill="none"
           stroke-opacity="0.3"
           stroke-width="2.0294"
           id="path21" />
        <g
           stroke-linejoin="round"
           stroke-width="0.10147"
           id="g35">
          <path
             d="m 46.718,-50.808 c -1.6909,-0.02982 -3.3365,0.90886 -3.3365,2.3373 0,0.89471 0.53558,1.5315 1.298,1.9116 v -0.04284 a 3.2348,2.3333 0 0 1 3.8735,0 v 0.04284 c 0.76243,-0.38008 1.298,-1.0169 1.298,-1.9116 0,-0.61954 -0.34152,-1.2137 -0.94942,-1.6514 -0.63708,-0.4587 -1.4151,-0.67232 -2.1837,-0.68587 z"
             fill="url(#j)"
             id="path22"
             style="fill:url(#j)" />
          <path
             d="m 35.88,-49.195 v 3.7377 l 2.1218,1.0562 v -3.7377"
             fill="#f2b81c"
             id="path23" />
          <path
             d="m 55.215,-48.962 0.18448,-0.28167 v -3.7377 l -1.1012,1.6814"
             fill="#ad821a"
             id="path24" />
          <path
             d="m 38.002,-48.139 10e-7,3.7377 a 8.6262,6.222 0 0 0 0.01475,0.16052 l 0.91674,-1.3997"
             fill="url(#i)"
             id="path25"
             style="fill:url(#i)" />
          <path
             d="m 37.832,-43.959 v 3.7377 c 0.70023,0.70936 1.5606,1.3289 2.5454,1.8327 l 10e-7,-3.7377"
             fill="url(#h)"
             id="path26"
             style="fill:url(#h)" />
          <path
             d="m 57.352,-47.745 v 3.7377 c -0.11253,0.867 -0.42613,1.7142 -0.9277,2.5063 v -3.7377"
             fill="url(#g)"
             id="path27"
             style="fill:url(#g)" />
          <path
             d="m 42.707,-42.924 v 3.7377 l -2.329,0.79733 v -3.7377"
             fill="#fbc100"
             id="path28" />
          <path
             d="m 56.424,-45.239 v 3.7377 l -2.5693,0.15279 v -3.7377"
             fill="#ffcb31"
             id="path29" />
          <path
             d="m 46.172,-42.257 v 3.7377 c -1.2073,-0.04485 -2.388,-0.27223 -3.4656,-0.66738 v -3.7377"
             fill="url(#f)"
             id="path30"
             style="fill:url(#f)" />
          <path
             d="m 53.855,-45.086 v 3.7377 c -0.65748,0.7317 -1.5208,1.3556 -2.5341,1.8311 v -3.7377"
             fill="url(#e)"
             id="path31"
             style="fill:url(#e)" />
          <path
             d="m 47.64,-40.728 v 3.7377 l -1.4681,-1.5286 v -3.7377"
             fill="#c0911f"
             id="path32" />
          <path
             d="m 51.321,-43.255 v 3.7377 l -0.2072,1.8535 v -3.7377"
             fill="#6c500d"
             id="path33" />
          <path
             d="m 51.113,-41.402 v 3.7377 c -1.0972,0.36321 -2.2713,0.59092 -3.4731,0.67366 v -3.7377"
             fill="url(#d)"
             id="path34"
             style="fill:url(#d)" />
          <path
             d="m 48.901,-50.122 c -2.0387,-1.4678 -5.5201,-0.42635 -5.5201,1.6513 0,3.111 6.4696,3.111 6.4696,0 0,-0.61955 -0.34161,-1.2137 -0.94951,-1.6513 z m -10.899,1.9826 -2.1218,-1.0562 c 0.11253,-0.86701 0.42613,-1.7142 0.9277,-2.5063 l 2.5693,-0.15279 c 0.65748,-0.7317 1.5208,-1.3556 2.5341,-1.8311 l 0.2072,-1.8535 c 1.0972,-0.36321 2.2713,-0.59093 3.4731,-0.67365 l 1.4681,1.5286 c 1.2073,0.04485 2.388,0.27223 3.4656,0.66739 l 2.329,-0.79733 c 0.98471,0.5038 1.8451,1.1233 2.5454,1.8327 l -1.1012,1.6814 c 0.54978,0.77655 0.86714,1.6278 0.93149,2.4985 l 2.1218,1.0562 c -0.11253,0.86701 -0.42613,1.7142 -0.9277,2.5063 l -2.5693,0.15279 c -0.65748,0.7317 -1.5208,1.3556 -2.5341,1.8311 l -0.2072,1.8535 c -1.0972,0.36321 -2.2713,0.59093 -3.4731,0.67366 l -1.4681,-1.5286 c -1.2073,-0.04485 -2.388,-0.27223 -3.4656,-0.66738 l -2.329,0.79733 c -0.98471,-0.5038 -1.8451,-1.1233 -2.5454,-1.8327 l 1.1012,-1.6814 c -0.54978,-0.77655 -0.86714,-1.6278 -0.93149,-2.4985 z"
             fill="#f3b800"
             id="path35" />
        </g>
      </g>
      <g
         transform="matrix(5,0,0,5,192.36,360.15)"
         stroke-miterlimit="20"
         id="g41">
        <path
           transform="translate(-48)"
           d="m 73.099,20.524 q -0.28418,0 -0.48926,-0.11719 -0.20215,-0.12012 -0.33106,-0.3252 v 1.5996 h -0.3252 v -4.3887 h 0.30176 l 0.01758,0.43066 q 0.12598,-0.23144 0.32812,-0.36035 0.20508,-0.12891 0.49219,-0.12891 0.49219,0 0.75879,0.35156 0.2666,0.35156 0.2666,1.1455 v 0.2959 q 0,0.76758 -0.2666,1.1338 -0.2666,0.36328 -0.75293,0.36328 z m -0.08496,-2.9795 q -0.29883,0 -0.47461,0.1582 -0.17285,0.1582 -0.26074,0.36621 v 1.6699 q 0.09668,0.20801 0.27539,0.3457 0.17871,0.13477 0.46582,0.13477 0.77344,0 0.77344,-1.1924 v -0.2959 q 0,-1.1865 -0.7793,-1.1865 z m 2.6572,3.4248 q -0.04687,0.14356 -0.13184,0.3252 -0.08203,0.18164 -0.23144,0.31348 -0.14648,0.13477 -0.38965,0.13477 -0.1377,0 -0.23145,-0.03809 l -0.0029,-0.29883 q 0.08203,0.02051 0.14648,0.02051 0.2373,0 0.36621,-0.14648 0.12891,-0.14356 0.21387,-0.42773 l 0.12598,-0.41309 -0.99609,-3.1465 h 0.35449 l 0.79102,2.6338 0.75293,-2.6338 h 0.34863 z m 2.751,-0.49512 q -0.12598,0.04687 -0.32227,0.04687 -0.25195,0 -0.41894,-0.17578 -0.16699,-0.17871 -0.16699,-0.65625 v -2.1035 h -0.48633 v -0.29297 h 0.48633 v -0.81152 h 0.32812 v 0.81152 h 0.53906 v 0.29297 h -0.53906 v 2.1035 q 0,0.32812 0.09961,0.42188 0.10254,0.09375 0.23438,0.09375 0.06445,0 0.12598,-0.0088 0.06152,-0.0088 0.1084,-0.02051 z m 1.7637,-2.9297 q -0.29004,0 -0.4834,0.2168 -0.19336,0.2168 -0.28125,0.49512 v 2.2061 h -0.3252 v -4.5 h 0.3252 v 1.8193 q 0.14062,-0.24902 0.35742,-0.39844 0.2168,-0.14942 0.49219,-0.14942 0.39844,0 0.62402,0.26953 0.22559,0.2666 0.22559,0.89355 v 2.0654 h -0.3252 v -2.0684 q 0,-0.48633 -0.16406,-0.66797 -0.16113,-0.18164 -0.44531,-0.18164 z m 1.6729,1.4971 v -0.32812 q 0,-0.71777 0.31934,-1.0986 0.32227,-0.38086 0.83789,-0.38086 0.51855,0 0.83789,0.38086 0.32227,0.38086 0.32227,1.0986 v 0.32812 q 0,0.71777 -0.32227,1.1016 -0.31934,0.38086 -0.83496,0.38086 -0.51562,0 -0.83789,-0.38086 -0.32227,-0.38379 -0.32227,-1.1016 z m 0.3252,-0.32812 v 0.32812 q 0,0.54199 0.2168,0.86133 0.21973,0.31641 0.61816,0.31641 0.42188,0 0.62695,-0.31641 0.20508,-0.31934 0.20508,-0.86133 v -0.32812 q 0,-0.5332 -0.21973,-0.85254 -0.21973,-0.32227 -0.61523,-0.32227 -0.3955,0 -0.61524,0.32227 -0.2168,0.31934 -0.2168,0.85254 z m 3.832,-1.1689 q -0.29004,0 -0.4834,0.2168 -0.19336,0.2168 -0.28125,0.49512 v 2.2061 h -0.3252 v -3.1699 h 0.31055 l 0.01172,0.49805 q 0.1377,-0.25195 0.35449,-0.4043 0.21973,-0.15234 0.49805,-0.15234 0.39844,0 0.62402,0.26953 0.22559,0.2666 0.22559,0.89355 v 2.0654 h -0.3252 v -2.0684 q 0,-0.48633 -0.16406,-0.66797 -0.16113,-0.18164 -0.44531,-0.18164 z m 1.7871,-1.166 q 0,-0.24024 0.21387,-0.24024 0.2168,0 0.2168,0.24024 0,0.23438 -0.2168,0.23438 -0.21387,0 -0.21387,-0.23438 z m 0.375,0.91406 v 3.1699 h -0.3252 v -3.1699 z m 1.9043,2.9268 q 0.27246,0 0.4834,-0.15527 0.21387,-0.1582 0.2373,-0.58301 h 0.31055 q -0.02051,0.50976 -0.32227,0.77637 -0.29883,0.2666 -0.70898,0.2666 -1.1455,0 -1.1455,-1.4678 v -0.35742 q 0,-1.4648 1.1455,-1.4648 0.43359,0 0.72363,0.27539 0.29004,0.27539 0.30762,0.85254 h -0.31055 q -0.02051,-0.44238 -0.22559,-0.63281 -0.20215,-0.19043 -0.49512,-0.19043 -0.45117,0 -0.63574,0.30469 -0.18457,0.30176 -0.18457,0.85547 v 0.35742 q 0,0.55664 0.18457,0.86133 0.18457,0.30176 0.63574,0.30176 z"
           fill="#3776ab"
           stroke-opacity="0.3"
           stroke-width="0.065"
           aria-label="pythonic"
           id="path36" />
        <path
           d="m 47.922,16.948 v 3.8 m -1.3178,-3.8 v 3.8 m -0.7,-0.89992 h 2.718 m -2.718,-2 h 2.718"
           fill="#00a15c"
           stroke="#3776ab"
           stroke-width="0.4"
           id="path37" />
        <path
           d="m 52.559,20.524 q -0.28418,0 -0.48926,-0.11719 -0.20215,-0.12012 -0.33106,-0.3252 v 1.5996 h -0.3252 v -4.3887 h 0.30176 l 0.01758,0.43066 q 0.12598,-0.23144 0.32812,-0.36035 0.20508,-0.12891 0.49219,-0.12891 0.49219,0 0.75879,0.35156 0.2666,0.35156 0.2666,1.1455 v 0.2959 q 0,0.76758 -0.2666,1.1338 -0.2666,0.36328 -0.75293,0.36328 z m -0.08496,-2.9795 q -0.29883,0 -0.47461,0.1582 -0.17285,0.1582 -0.26074,0.36621 v 1.6699 q 0.09668,0.20801 0.27539,0.3457 0.17871,0.13477 0.46582,0.13477 0.77344,0 0.77344,-1.1924 v -0.2959 q 0,-1.1865 -0.7793,-1.1865 z m 3.5361,2.918 q -0.02637,-0.08203 -0.04102,-0.19922 -0.01465,-0.12012 -0.02051,-0.24023 -0.12305,0.19629 -0.34277,0.34863 -0.2168,0.15234 -0.53027,0.15234 -0.39258,0 -0.62988,-0.22559 -0.2373,-0.22559 -0.2373,-0.6709 0,-0.43945 0.30176,-0.72656 0.30176,-0.28711 0.89941,-0.28711 h 0.53613 v -0.44238 q 0,-0.63281 -0.66211,-0.63281 -0.30469,0 -0.49805,0.17578 -0.19043,0.17578 -0.19043,0.4541 l -0.3252,-0.0029 q 0,-0.36621 0.28125,-0.64746 0.28418,-0.28418 0.74707,-0.28418 0.42774,0 0.7002,0.21387 0.27246,0.21387 0.27246,0.72949 v 1.6201 q 0,0.16406 0.02051,0.33984 0.02051,0.17578 0.06152,0.28711 v 0.03809 z m -0.89648,-0.25781 q 0.31055,0 0.52441,-0.1582 0.2168,-0.16113 0.30762,-0.38379 v -0.77344 h -0.48926 q -0.45703,0 -0.69141,0.19336 -0.23144,0.19336 -0.23144,0.51856 0,0.60352 0.58008,0.60352 z m 3.085,-2.6279 q -0.28418,0 -0.46289,0.19043 -0.17578,0.19043 -0.24902,0.49219 v 2.2031 h -0.3252 v -3.1699 h 0.31641 l 0.0088,0.47461 q 0.10547,-0.24609 0.28711,-0.38965 0.18164,-0.14356 0.43945,-0.14356 0.12012,0 0.19629,0.03516 l -0.0088,0.32812 q -0.09375,-0.02051 -0.20215,-0.02051 z m 2.3379,2.8857 q -0.02637,-0.08203 -0.04102,-0.19922 -0.01465,-0.12012 -0.02051,-0.24023 -0.12305,0.19629 -0.34277,0.34863 -0.2168,0.15234 -0.53027,0.15234 -0.39258,0 -0.62988,-0.22559 -0.2373,-0.22559 -0.2373,-0.6709 0,-0.43945 0.30176,-0.72656 0.30176,-0.28711 0.89941,-0.28711 h 0.53613 v -0.44238 q 0,-0.63281 -0.66211,-0.63281 -0.30469,0 -0.49805,0.17578 -0.19043,0.17578 -0.19043,0.4541 l -0.3252,-0.0029 q 0,-0.36621 0.28125,-0.64746 0.28418,-0.28418 0.74707,-0.28418 0.42773,0 0.7002,0.21387 0.27246,0.21387 0.27246,0.72949 v 1.6201 q 0,0.16406 0.02051,0.33984 0.02051,0.17578 0.06152,0.28711 v 0.03809 z m -0.89648,-0.25781 q 0.31055,0 0.52441,-0.1582 0.2168,-0.16113 0.30762,-0.38379 v -0.77344 h -0.48926 q -0.45703,0 -0.69141,0.19336 -0.23144,0.19336 -0.23144,0.51856 0,0.60352 0.58008,0.60352 z m 3.1025,-2.6602 q -0.31348,0 -0.49219,0.21387 -0.17578,0.21094 -0.24902,0.4834 v 2.2207 h -0.32812 v -3.1699 h 0.31348 l 0.01172,0.46875 q 0.13184,-0.24023 0.3457,-0.38379 0.21386,-0.14356 0.50098,-0.14356 0.28418,0 0.48926,0.1377 0.20801,0.1377 0.30176,0.44531 0.12598,-0.25488 0.35449,-0.41894 0.22852,-0.16406 0.54199,-0.16406 0.41895,0 0.64746,0.27246 0.23145,0.27246 0.23145,0.8877 v 2.0684 h -0.32812 v -2.0713 q 0,-0.49805 -0.17578,-0.67383 -0.17285,-0.17578 -0.45703,-0.17285 -0.35156,0.0029 -0.53906,0.26953 -0.18457,0.2666 -0.20801,0.54199 v 2.1064 h -0.3252 v -2.0977 q 0,-0.46875 -0.17578,-0.64453 -0.17578,-0.17578 -0.45996,-0.17578 z m 5.5107,2.5518 q -0.12891,0.17285 -0.35449,0.30176 -0.22559,0.12598 -0.58887,0.12598 -0.53027,0 -0.86719,-0.35156 -0.33398,-0.35156 -0.33398,-1.0869 v -0.36328 q 0,-0.79395 0.3457,-1.1396 0.3457,-0.34863 0.7998,-0.34863 1.0605,0 1.0605,1.3975 v 0.27246 h -1.8809 v 0.18164 q 0,0.57715 0.24316,0.85547 0.24609,0.27832 0.64746,0.27832 0.46875,0 0.75586,-0.33984 z m -0.99902,-2.5576 q -0.3457,0 -0.57129,0.24609 -0.22266,0.24316 -0.24609,0.81445 h 1.5527 v -0.08203 q -0.0088,-0.46289 -0.1875,-0.7207 -0.17871,-0.25781 -0.54785,-0.25781 z m 2.8271,2.9355 q -0.12598,0.04687 -0.32226,0.04687 -0.25195,0 -0.41894,-0.17578 -0.16699,-0.17871 -0.16699,-0.65625 v -2.1035 h -0.48633 v -0.29297 h 0.48633 v -0.81152 h 0.32812 v 0.81152 h 0.53906 v 0.29297 h -0.53906 v 2.1035 q 0,0.32812 0.09961,0.42188 0.10254,0.09375 0.23438,0.09375 0.06445,0 0.12598,-0.0088 0.06152,-0.0088 0.1084,-0.02051 z m 1.7109,-2.8975 q -0.28418,0 -0.46289,0.19043 -0.17578,0.19043 -0.24902,0.49219 v 2.2031 h -0.3252 v -3.1699 h 0.31641 l 0.0088,0.47461 q 0.10547,-0.24609 0.28711,-0.38965 0.18164,-0.14356 0.43945,-0.14356 0.12012,0 0.19629,0.03516 l -0.0088,0.32812 q -0.09375,-0.02051 -0.20215,-0.02051 z m 0.76465,-1.1982 q 0,-0.24024 0.21387,-0.24024 0.2168,0 0.2168,0.24024 0,0.23438 -0.2168,0.23438 -0.21387,0 -0.21387,-0.23438 z m 0.375,0.91406 v 3.1699 h -0.3252 v -3.1699 z m 1.9043,2.9268 q 0.27246,0 0.4834,-0.15527 0.21387,-0.1582 0.2373,-0.58301 h 0.31055 q -0.02051,0.50976 -0.32226,0.77637 -0.29883,0.2666 -0.70898,0.2666 -1.1455,0 -1.1455,-1.4678 v -0.35742 q 0,-1.4648 1.1455,-1.4648 0.43359,0 0.72363,0.27539 0.29004,0.27539 0.30762,0.85254 h -0.31055 q -0.02051,-0.44238 -0.22559,-0.63281 -0.20215,-0.19043 -0.49512,-0.19043 -0.45117,0 -0.63574,0.30469 -0.18457,0.30176 -0.18457,0.85547 v 0.35742 q 0,0.55664 0.18457,0.86133 0.18457,0.30176 0.63574,0.30176 z"
           fill="#3776ab"
           stroke-opacity="0.3"
           stroke-width="0.065"
           aria-label="parametric"
           id="path38" />
        <path
           d="m 80.676,16.948 v 3.8 m -1.3178,-3.8 v 3.8 m -0.7,-0.89992 h 2.718 m -2.718,-2 h 2.718"
           fill="#00a15c"
           stroke="#3776ab"
           stroke-width="0.4"
           id="path39" />
        <path
           d="m 85.313,20.219 q 0.27246,0 0.4834,-0.15527 0.21387,-0.1582 0.2373,-0.58301 h 0.31055 q -0.02051,0.50976 -0.32227,0.77637 -0.29883,0.2666 -0.70898,0.2666 -1.1455,0 -1.1455,-1.4678 v -0.35742 q 0,-1.4648 1.1455,-1.4648 0.43359,0 0.72363,0.27539 0.29004,0.27539 0.30762,0.85254 H 86.0337 q -0.02051,-0.44238 -0.22559,-0.63281 -0.20215,-0.19043 -0.49512,-0.19043 -0.45117,0 -0.63574,0.30469 -0.18457,0.30176 -0.18457,0.85547 v 0.35742 q 0,0.55664 0.18457,0.86133 0.18457,0.30176 0.63574,0.30176 z m 3.3984,0.24316 q -0.02637,-0.08203 -0.04102,-0.19922 -0.01465,-0.12012 -0.02051,-0.24023 -0.12305,0.19629 -0.34277,0.34863 -0.2168,0.15234 -0.53027,0.15234 -0.39258,0 -0.62988,-0.22559 -0.2373,-0.22559 -0.2373,-0.6709 0,-0.43945 0.30176,-0.72656 0.30176,-0.28711 0.89941,-0.28711 h 0.53613 v -0.44238 q 0,-0.63281 -0.66211,-0.63281 -0.30469,0 -0.49805,0.17578 -0.19043,0.17578 -0.19043,0.4541 l -0.3252,-0.0029 q 0,-0.36621 0.28125,-0.64746 0.28418,-0.28418 0.74707,-0.28418 0.42774,0 0.7002,0.21387 0.27246,0.21387 0.27246,0.72949 v 1.6201 q 0,0.16406 0.02051,0.33984 0.02051,0.17578 0.06152,0.28711 v 0.03809 z m -0.89648,-0.25781 q 0.31055,0 0.52441,-0.1582 0.2168,-0.16113 0.30762,-0.38379 v -0.77344 h -0.48926 q -0.45703,0 -0.69141,0.19336 -0.23144,0.19336 -0.23144,0.51856 0,0.60352 0.58008,0.60352 z m 3.791,0.25781 -0.01465,-0.41016 q -0.12305,0.21973 -0.32812,0.3457 -0.20215,0.12598 -0.48926,0.12598 -0.46875,0 -0.75,-0.36328 -0.27832,-0.36621 -0.27832,-1.1338 v -0.2959 q 0,-0.79395 0.27832,-1.1455 0.27832,-0.35156 0.75586,-0.35156 0.28418,0 0.48047,0.12891 0.19922,0.12598 0.3252,0.35449 v -1.7549 h 0.3252 v 4.5 z m -1.5322,-1.4355 q 0,1.1836 0.76465,1.1836 0.29004,0 0.46875,-0.14062 0.18164,-0.14062 0.27832,-0.35449 v -1.6348 q -0.08789,-0.21387 -0.26367,-0.375 -0.17285,-0.16113 -0.47754,-0.16113 -0.77051,0 -0.77051,1.1865 z"
           fill="#3776ab"
           stroke-opacity="0.3"
           stroke-width="0.065"
           aria-label="cad"
           id="path40" />
        <path
           transform="translate(-48)"
           d="m 78.844,9.8269 q 0,2.2588 -0.81738,3.3662 -0.81738,1.1074 -2.3115,1.1074 -1.5029,0 -2.2588,-1.3008 l -0.0791,1.125 h -1.4238 v -13.5 h 1.5557 v 5.0186 q 0.74707,-1.2041 2.1973,-1.2041 1.5117,0 2.3203,1.0811 0.81738,1.0723 0.81738,3.4189 z M 75.302,5.8103 q -0.65918,0 -1.0986,0.36914 -0.43945,0.36914 -0.69434,0.92285 v 4.5352 q 0.25488,0.54492 0.68555,0.91406 0.43945,0.36914 1.1162,0.36914 1.0635,0 1.5205,-0.74707 0.45703,-0.75586 0.45703,-2.3467 v -0.8877 q 0,-1.582 -0.43066,-2.3555 -0.43066,-0.7735 -1.5557,-0.77344 z m 10.415,8.3145 -0.02637,-0.83496 q -0.79102,1.0107 -2.2676,1.0107 -1.1777,0 -1.8984,-0.82617 -0.7207,-0.82617 -0.7207,-2.7246 v -6.1348 h 1.5469 v 6.1523 q 0,1.2832 0.42188,1.7227 0.42188,0.43066 0.91406,0.43066 0.76465,0 1.2305,-0.34277 0.47461,-0.35156 0.7207,-0.93164 v -7.0313 h 1.5557 v 9.5098 z m 3.8496,-12.032 q 0,-0.39551 0.21973,-0.66797 0.21973,-0.27246 0.65918,-0.27246 0.43066,0 0.65918,0.27246 0.22852,0.27246 0.22852,0.66797 0,0.37793 -0.22852,0.65039 -0.22852,0.26367 -0.65918,0.26367 -0.43945,0 -0.65918,-0.26367 Q 89.5666,2.47073 89.5666,2.0928 Z m 1.6348,2.5225 v 9.5098 H 89.6545 V 4.6153 Z m 4.1309,-3.9902 v 13.5 h -1.5469 v -13.5 z m 7.5762,13.5 -0.0703,-1.0283 q -0.75586,1.2041 -2.206,1.2041 -1.4063,0 -2.2939,-1.1074 -0.87893,-1.1074 -0.87893,-3.3662 V 8.9396 q 0,-2.3467 0.87891,-3.4189 0.87891,-1.0811 2.3115,-1.0811 1.3799,0 2.127,1.1074 V 0.6251 h 1.5469 v 13.5 z M 99.0149,9.8272 q 0,1.5908 0.47461,2.3467 0.47461,0.74707 1.5469,0.74707 0.65918,0 1.0723,-0.3252 0.41309,-0.33398 0.66797,-0.85254 v -4.7725 q -0.26367,-0.50098 -0.68555,-0.82617 -0.41308,-0.33398 -1.0371,-0.33398 -1.0811,0 -1.5644,0.77344 -0.47461,0.76465 -0.47461,2.3555 z m 12.199,-8.5693 v 12.867 h -1.5557 V 3.2879 l -2.6895,1.1953 V 3.0154 l 4.0078,-1.7578 z m 11.408,11.531 v 1.3359 h -7.1543 v -1.1689 l 3.5244,-4.667 q 0.9668,-1.292 1.2832,-2.0303 0.31641,-0.74707 0.31641,-1.4941 0,-0.94043 -0.45703,-1.6084 -0.44824,-0.66797 -1.2656,-0.66797 -1.0723,0 -1.5557,0.72949 -0.4834,0.72949 -0.4834,1.8721 h -1.5557 q 0,-1.6172 0.89648,-2.7773 0.90527,-1.1602 2.6982,-1.1602 1.5469,0 2.4082,0.94043 0.87011,0.94043 0.87011,2.4785 0,1.1338 -0.58007,2.2852 -0.57129,1.1514 -1.3975,2.2148 l -2.8389,3.7178 z m 4.7285,-4.5264 h -1.002 V 6.9266 h 1.002 q 1.002,0 1.4854,-0.62402 0.49219,-0.62402 0.49219,-1.5645 0,-2.25 -1.7314,-2.25 -0.81738,0 -1.3096,0.59766 -0.4834,0.58887 -0.4834,1.5908 h -1.5469 q 0,-1.4678 0.90527,-2.4961 0.90528,-1.0283 2.4346,-1.0283 1.459,0 2.373,0.92285 0.91406,0.91406 0.91406,2.6982 0,0.71191 -0.38672,1.5205 -0.38672,0.7998 -1.2656,1.2568 1.081,0.4043 1.4414,1.2744 0.36036,0.86133 0.36036,1.7314 0,1.793 -0.99317,2.7686 -0.98437,0.97559 -2.4522,0.97559 -1.4326,0 -2.417,-0.92285 -0.98437,-0.93164 -0.98437,-2.6367 h 1.5557 q 0,1.0107 0.4834,1.6172 0.49219,0.60644 1.3623,0.60644 0.86133,0 1.3711,-0.58887 0.51855,-0.58887 0.51855,-1.7842 0,-1.1953 -0.57129,-1.7578 -0.57129,-0.57129 -1.5557,-0.57129 z m 11.145,5.8623 -0.0703,-1.0283 q -0.75586,1.2041 -2.2061,1.2041 -1.4062,0 -2.2939,-1.1074 -0.87891,-1.1074 -0.87891,-3.3662 V 8.9393 q 0,-2.3467 0.87891,-3.4189 0.8789,-1.0811 2.3115,-1.0811 1.3799,0 2.127,1.1074 V 0.6248 h 1.5469 v 13.5 z m -3.8936,-4.2979 q 0,1.5908 0.4746,2.3467 0.47461,0.74707 1.5469,0.74707 0.65918,0 1.0723,-0.3252 0.41308,-0.33398 0.66796,-0.85254 v -4.7725 q -0.26367,-0.50098 -0.68554,-0.82617 -0.41309,-0.33398 -1.0371,-0.33398 -1.0811,0 -1.5645,0.77344 -0.4746,0.76465 -0.4746,2.3555 z"
           fill="#3776ab"
           aria-label="build123d"
           id="path41" />
      </g>
    </g>
  </g>
</svg>
